<?xml version="1.0" standalone="no"?>
<!DOCTYPE svg PUBLIC "-//W3C//DTD SVG 20010904//EN"
 "http://www.w3.org/TR/2001/REC-SVG-20010904/DTD/svg10.dtd">
<svg version="1.0" xmlns="http://www.w3.org/2000/svg"
 width="2048.000000pt" height="2048.000000pt" viewBox="0 0 2048.000000 2048.000000"
 preserveAspectRatio="xMidYMid meet">
<metadata>
Created by potrace 1.16, written by Peter Selinger 2001-2019
</metadata>
<g transform="translate(0.000000,2048.000000) scale(0.100000,-0.100000)"
fill="#000000" stroke="none">
<path d="M0 16675 l0 -3805 25 0 c14 0 25 5 25 10 0 6 9 10 20 10 16 0 20 7
20 30 l0 30 100 0 c93 0 100 1 100 20 0 11 5 20 10 20 6 0 10 9 10 20 0 15 7
20 28 20 16 0 34 8 42 20 8 11 22 20 32 20 13 0 18 8 18 28 0 16 8 34 20 42
12 8 20 26 20 42 0 21 5 28 20 28 11 0 20 5 20 10 0 6 18 10 40 10 22 0 40 5
40 10 0 6 14 10 30 10 21 0 30 5 30 16 0 23 25 44 54 44 22 0 26 4 26 30 0 28
2 30 40 30 l40 0 0 60 0 60 40 0 40 0 0 50 c0 43 3 50 20 50 11 0 20 5 20 10
0 6 9 10 20 10 16 0 20 7 20 30 0 21 5 30 16 30 18 0 44 23 44 40 0 17 26 40
44 40 9 0 16 8 16 20 0 13 7 20 20 20 12 0 20 7 20 16 0 18 23 44 40 44 17 0
40 26 40 44 0 9 5 16 10 16 6 0 10 9 10 20 0 16 7 20 30 20 26 0 30 4 30 28 0
16 8 34 20 42 11 8 20 21 20 30 0 9 9 22 20 30 11 8 20 22 20 32 0 10 5 18 10
18 6 0 10 7 10 16 0 20 24 44 44 44 9 0 16 8 16 20 0 11 5 20 10 20 6 0 10 14
10 30 0 17 5 30 10 30 6 0 10 7 10 16 0 9 13 29 30 44 23 21 30 37 30 64 0 28
4 36 18 36 10 0 24 9 32 20 8 11 22 20 32 20 13 0 18 8 18 30 0 17 5 30 10 30
6 0 10 9 10 20 0 11 5 20 10 20 6 0 10 9 10 20 0 13 7 20 20 20 13 0 20 7 20
18 0 10 9 24 20 32 13 9 20 26 20 48 0 27 10 43 50 82 28 27 50 56 50 64 0 9
5 16 10 16 6 0 10 8 10 18 0 10 9 24 20 32 12 8 20 26 20 42 0 23 4 28 26 28
35 0 54 22 54 64 0 29 4 36 20 36 16 0 20 7 20 30 0 27 3 30 30 30 28 0 30 2
30 40 0 30 4 40 16 40 23 0 44 25 44 54 0 17 6 26 16 26 26 0 44 26 44 64 0
29 4 36 20 36 15 0 20 7 20 26 0 29 21 54 44 54 12 0 16 10 16 40 l0 40 40 0
c32 0 40 4 40 18 0 10 9 24 20 32 15 11 20 26 20 62 0 41 3 48 20 48 15 0 20
7 20 26 0 33 21 54 54 54 22 0 26 4 26 30 0 23 4 30 20 30 11 0 20 5 20 10 0
6 7 10 16 10 26 0 44 26 44 64 0 35 1 36 36 36 45 0 64 19 64 64 0 29 4 36 20
36 13 0 20 7 20 20 0 13 7 20 20 20 16 0 20 7 20 30 0 21 5 30 16 30 20 0 44
24 44 44 0 11 9 16 30 16 27 0 30 3 30 30 0 27 3 30 30 30 21 0 30 5 30 16 0
20 24 44 44 44 9 0 16 7 16 16 0 20 24 44 44 44 11 0 16 9 16 30 0 23 4 30 20
30 13 0 20 7 20 20 0 16 7 20 30 20 23 0 30 4 30 20 0 11 5 20 10 20 6 0 10
18 10 40 l0 40 40 0 c33 0 40 3 40 20 0 16 7 20 30 20 21 0 30 5 30 16 0 9 14
29 30 44 17 15 30 35 30 44 0 13 11 16 50 16 47 0 50 2 50 25 0 29 40 75 65
75 10 0 15 10 15 30 0 23 4 30 20 30 11 0 20 5 20 10 0 6 9 10 20 10 13 0 20
7 20 20 0 13 7 20 20 20 13 0 20 7 20 18 0 10 9 24 20 32 11 8 20 22 20 32 0
11 7 18 20 18 11 0 20 5 20 10 0 6 14 10 30 10 21 0 30 5 30 16 0 23 25 44 54
44 19 0 26 5 26 20 0 13 7 20 20 20 16 0 20 7 20 30 0 21 5 30 16 30 8 0 33
18 54 40 25 26 47 40 64 40 22 0 26 4 26 30 0 22 5 30 18 30 10 0 24 9 32 20
8 11 22 20 32 20 10 0 18 7 18 16 0 23 25 44 54 44 17 0 26 6 26 16 0 19 24
44 42 44 8 0 20 9 28 20 8 11 22 20 32 20 11 0 18 7 18 20 0 13 7 20 20 20 13
0 20 7 20 20 0 13 7 20 20 20 13 0 20 7 20 20 0 17 7 20 40 20 22 0 40 5 40
10 0 6 7 10 16 10 9 0 29 14 44 30 15 17 35 30 44 30 9 0 16 8 16 20 0 13 7
20 18 20 10 0 24 9 32 20 8 11 22 20 32 20 11 0 18 7 18 20 0 13 7 20 20 20
11 0 20 5 20 10 0 6 9 10 20 10 13 0 20 7 20 20 0 15 7 20 26 20 26 0 54 20
54 40 0 16 47 60 65 60 8 0 15 9 15 20 0 17 7 20 40 20 30 0 40 4 40 16 0 20
24 44 44 44 9 0 16 5 16 10 0 6 9 10 20 10 11 0 20 5 20 10 0 6 9 10 20 10 11
0 20 5 20 10 0 6 14 10 30 10 23 0 30 4 30 20 0 13 7 20 20 20 11 0 20 5 20
10 0 6 9 10 20 10 11 0 20 5 20 10 0 6 9 10 20 10 13 0 20 7 20 20 0 17 7 20
40 20 33 0 40 3 40 20 0 13 7 20 20 20 11 0 20 5 20 10 0 6 14 10 30 10 17 0
30 5 30 10 0 6 8 10 18 10 10 0 24 9 32 20 8 11 22 20 32 20 10 0 18 5 18 10
0 6 7 10 16 10 23 0 44 25 44 54 0 22 4 26 30 26 23 0 30 4 30 20 0 16 7 20
30 20 17 0 30 5 30 10 0 6 14 10 30 10 27 0 30 3 30 30 0 29 1 30 50 30 43 0
50 3 50 20 0 15 7 20 28 20 16 0 34 8 42 20 11 15 26 20 62 20 26 0 48 5 48
10 0 6 7 10 16 10 18 0 44 23 44 40 0 19 27 40 52 40 13 0 30 9 38 20 8 12 26
20 42 20 15 0 28 5 28 10 0 6 8 10 18 10 10 0 24 9 32 20 10 14 26 20 52 20
21 0 38 5 38 10 0 6 9 10 20 10 12 0 20 7 20 16 0 23 25 44 54 44 14 0 26 5
26 10 0 6 9 10 20 10 13 0 20 7 20 20 0 16 7 20 38 20 26 0 42 6 52 20 8 11
22 20 32 20 11 0 18 7 18 20 0 18 7 20 56 20 49 0 59 4 84 30 17 18 38 30 54
30 14 0 26 5 26 10 0 6 18 10 40 10 30 0 40 4 40 16 0 23 25 44 54 44 14 0 26
5 26 10 0 6 13 10 28 10 16 0 34 8 42 20 8 12 26 20 42 20 15 0 28 5 28 10 0
6 12 10 26 10 29 0 54 21 54 44 0 9 8 16 20 16 13 0 20 7 20 20 0 17 7 20 50
20 28 0 50 5 50 10 0 6 9 10 20 10 11 0 20 5 20 10 0 6 14 10 30 10 17 0 30 5
30 10 0 6 7 10 16 10 20 0 44 24 44 44 0 11 9 16 30 16 17 0 30 5 30 10 0 6
14 10 30 10 17 0 30 5 30 10 0 6 9 10 20 10 11 0 20 5 20 10 0 6 23 10 50 10
39 0 50 4 50 16 0 23 25 44 54 44 14 0 26 5 26 10 0 6 9 10 20 10 11 0 20 5
20 10 0 6 8 10 18 10 10 0 24 9 32 20 12 17 26 20 82 20 61 0 68 2 68 20 0 16
7 20 30 20 23 0 30 4 30 20 0 17 7 20 50 20 l50 0 0 40 0 40 50 0 c28 0 50 5
50 10 0 6 14 10 30 10 17 0 30 5 30 10 0 6 18 10 40 10 33 0 40 -3 40 -20 0
-11 5 -20 10 -20 6 0 10 7 10 16 0 20 24 44 44 44 11 0 16 9 16 30 0 27 3 30
30 30 17 0 30 5 30 10 0 6 9 10 20 10 17 0 20 7 20 40 l0 40 50 0 50 0 0 -36
c0 -19 6 -42 14 -50 17 -16 66 -19 66 -4 0 6 14 10 30 10 28 0 30 2 30 40 l0
40 50 0 c28 0 50 5 50 10 0 6 18 10 40 10 30 0 40 -4 40 -16 0 -15 23 -44 34
-44 3 0 6 14 6 30 l0 30 60 0 c33 0 60 -4 60 -10 0 -5 17 -10 38 -10 26 0 42
6 52 20 11 15 26 20 62 20 l48 0 0 -40 c0 -33 3 -40 20 -40 15 0 20 7 20 26 0
14 6 32 14 40 16 16 86 19 86 4 0 -5 9 -10 20 -10 13 0 20 7 20 20 0 17 7 20
40 20 33 0 40 -3 40 -20 0 -11 5 -20 10 -20 6 0 10 -13 10 -30 0 -26 3 -30 29
-30 16 0 32 -6 35 -12 5 -10 7 -10 12 0 3 6 14 12 25 12 12 0 19 7 19 20 0 17
7 20 39 20 22 0 42 -6 45 -12 5 -10 7 -10 12 0 3 7 25 12 55 12 42 0 49 -3 49
-20 0 -11 5 -20 10 -20 6 0 10 -16 10 -36 0 -19 6 -42 14 -50 20 -19 26 -18
26 6 0 17 7 20 50 20 28 0 50 5 50 10 0 15 70 12 86 -4 8 -8 14 -31 14 -50 0
-29 4 -36 20 -36 11 0 20 5 20 10 0 6 27 10 60 10 33 0 60 -4 60 -10 0 -5 12
-10 26 -10 29 0 54 -21 54 -44 0 -9 5 -16 10 -16 6 0 10 5 10 10 0 6 23 10 50
10 43 0 50 -3 50 -20 0 -18 7 -20 70 -20 40 0 70 -4 70 -10 0 -5 8 -10 18 -10
10 0 24 -9 32 -20 8 -11 22 -20 32 -20 10 0 18 -4 18 -10 0 -5 17 -10 38 -10
26 0 42 -6 52 -20 11 -15 26 -20 62 -20 26 0 48 -4 48 -10 0 -5 5 -10 10 -10
6 0 10 14 10 30 0 28 2 30 40 30 33 0 40 -3 40 -20 0 -16 7 -20 30 -20 27 0
30 -3 30 -30 0 -28 2 -30 40 -30 33 0 40 -3 40 -20 0 -16 7 -20 30 -20 17 0
30 -4 30 -10 0 -6 27 -10 60 -10 53 0 60 -2 60 -20 0 -17 7 -20 40 -20 33 0
40 -3 40 -20 0 -17 7 -20 40 -20 22 0 40 -4 40 -10 0 -5 23 -10 50 -10 28 0
50 -4 50 -10 0 -5 9 -10 20 -10 11 0 20 -4 20 -10 0 -5 18 -10 40 -10 33 0 40
-3 40 -20 0 -13 7 -20 20 -20 11 0 20 -4 20 -10 0 -6 33 -10 80 -10 l80 0 0
-30 c0 -27 3 -30 30 -30 21 0 30 -5 30 -16 0 -8 6 -22 14 -30 17 -16 66 -19
66 -4 0 6 18 10 40 10 30 0 40 -4 40 -16 0 -30 27 -44 84 -44 49 0 56 -2 56
-20 0 -18 7 -20 60 -20 48 0 60 -3 60 -16 0 -26 26 -44 64 -44 29 0 36 -4 36
-20 0 -18 7 -20 66 -20 67 0 94 -13 94 -44 0 -9 8 -16 20 -16 11 0 20 -4 20
-10 0 -5 14 -10 30 -10 27 0 30 -3 30 -30 0 -28 2 -30 40 -30 22 0 40 -4 40
-10 0 -5 7 -10 16 -10 9 0 29 -13 44 -30 17 -18 38 -30 54 -30 14 0 26 -4 26
-10 0 -5 13 -10 28 -10 16 0 34 -8 42 -20 10 -14 26 -20 52 -20 21 0 38 -4 38
-10 0 -5 9 -10 20 -10 13 0 20 -7 20 -20 0 -18 7 -20 58 -20 46 0 60 -4 72
-20 8 -11 22 -20 32 -20 11 0 18 -7 18 -20 0 -15 7 -20 28 -20 16 0 34 -8 42
-20 10 -14 26 -20 50 -20 24 0 40 -6 50 -20 8 -12 26 -20 42 -20 21 0 28 -5
28 -20 0 -13 7 -20 20 -20 12 0 20 -7 20 -16 0 -28 27 -44 74 -44 25 0 46 -4
46 -10 0 -5 18 -10 40 -10 22 0 40 -4 40 -10 0 -5 13 -10 28 -10 16 0 34 -8
42 -20 8 -11 22 -20 32 -20 13 0 18 -8 18 -30 0 -28 3 -30 36 -30 38 0 64 -18
64 -44 0 -13 12 -16 60 -16 48 0 60 -3 60 -16 0 -23 25 -44 54 -44 17 0 26 -6
26 -16 0 -28 27 -44 74 -44 35 0 46 -4 46 -16 0 -18 24 -44 40 -44 7 0 25 -13
40 -30 17 -18 38 -30 54 -30 14 0 26 -4 26 -10 0 -5 14 -10 30 -10 23 0 30 -4
30 -20 0 -16 7 -20 35 -20 38 0 85 -36 85 -65 0 -11 11 -15 40 -15 22 0 40 -4
40 -10 0 -5 9 -10 20 -10 11 0 20 -7 20 -15 0 -24 66 -85 92 -85 13 0 30 -9
38 -20 8 -11 22 -20 32 -20 11 0 18 -7 18 -20 0 -16 7 -20 30 -20 17 0 30 -4
30 -10 0 -5 14 -10 30 -10 23 0 30 -4 30 -20 0 -13 7 -20 18 -20 10 0 24 -9
32 -20 8 -12 26 -20 42 -20 15 0 28 -4 28 -10 0 -5 9 -10 20 -10 11 0 20 -4
20 -10 0 -5 9 -10 20 -10 12 0 20 -7 20 -16 0 -20 24 -44 44 -44 9 0 16 -4 16
-10 0 -5 9 -10 20 -10 13 0 20 -7 20 -20 0 -12 7 -20 16 -20 18 0 44 -23 44
-40 0 -16 26 -40 42 -40 8 0 20 -9 28 -20 8 -11 22 -20 32 -20 10 0 18 -4 18
-10 0 -5 14 -10 30 -10 20 0 30 -5 30 -15 0 -18 84 -105 100 -105 16 0 60 -47
60 -65 0 -8 9 -15 20 -15 15 0 20 -7 20 -26 0 -35 22 -54 64 -54 26 0 36 -4
36 -15 0 -20 65 -85 85 -85 8 0 15 -7 15 -16 0 -20 24 -44 44 -44 9 0 16 -8
16 -20 0 -16 7 -20 30 -20 27 0 30 -3 30 -30 0 -22 5 -30 18 -30 10 0 24 -9
32 -20 8 -11 22 -20 32 -20 11 0 18 -7 18 -20 0 -16 7 -20 30 -20 27 0 30 -3
30 -30 0 -23 4 -30 20 -30 12 0 20 -7 20 -16 0 -20 24 -44 44 -44 9 0 16 -7
16 -15 0 -20 45 -65 65 -65 8 0 15 -7 15 -15 0 -9 32 -47 70 -85 39 -38 70
-76 70 -85 0 -8 8 -15 18 -15 10 0 24 -9 32 -20 8 -11 22 -20 32 -20 11 0 18
-7 18 -20 0 -13 7 -20 20 -20 16 0 20 -7 20 -30 0 -16 5 -30 10 -30 6 0 10 -9
10 -20 0 -16 7 -20 30 -20 26 0 30 -4 30 -26 0 -29 21 -54 44 -54 10 0 16 -9
16 -26 0 -29 21 -54 44 -54 9 0 16 -8 16 -20 0 -13 7 -20 20 -20 16 0 20 -7
20 -30 0 -21 5 -30 16 -30 20 0 44 -24 44 -44 0 -9 8 -16 20 -16 15 0 20 -7
20 -26 0 -26 20 -54 40 -54 17 0 40 -26 40 -44 0 -9 5 -16 10 -16 6 0 10 -7
10 -16 0 -9 13 -29 30 -44 17 -15 30 -35 30 -44 0 -9 5 -16 10 -16 6 0 10 -18
10 -40 0 -33 3 -40 20 -40 12 0 20 -7 20 -16 0 -18 23 -44 40 -44 20 0 40 -28
40 -54 0 -14 5 -26 10 -26 6 0 10 -9 10 -20 0 -13 7 -20 20 -20 12 0 20 -7 20
-16 0 -9 13 -29 30 -44 17 -15 30 -35 30 -44 0 -9 8 -16 20 -16 13 0 20 -7 20
-20 0 -13 7 -20 20 -20 17 0 20 -7 20 -40 0 -22 5 -40 10 -40 6 0 10 -9 10
-20 0 -11 5 -20 10 -20 6 0 10 -9 10 -20 0 -12 7 -20 16 -20 18 0 44 -23 44
-40 0 -16 47 -60 65 -60 8 0 15 -7 15 -16 0 -20 24 -44 44 -44 9 0 16 -8 16
-18 0 -10 9 -24 20 -32 12 -8 20 -26 20 -42 0 -21 5 -28 20 -28 13 0 20 -7 20
-20 0 -11 5 -20 10 -20 6 0 10 -7 10 -16 0 -20 24 -44 44 -44 12 0 16 -10 16
-40 0 -33 3 -40 20 -40 16 0 20 -7 20 -36 0 -38 18 -64 44 -64 11 0 16 -9 16
-30 0 -16 5 -30 10 -30 6 0 10 -7 10 -16 0 -20 24 -44 44 -44 12 0 16 -10 16
-36 0 -27 7 -43 30 -64 16 -15 30 -34 30 -42 0 -7 9 -20 20 -28 11 -8 20 -22
20 -32 0 -10 5 -18 10 -18 6 0 10 -9 10 -20 0 -11 5 -20 10 -20 6 0 10 -9 10
-20 0 -11 7 -20 15 -20 32 0 65 -47 65 -90 0 -43 33 -90 65 -90 8 0 15 -9 15
-20 0 -11 5 -20 10 -20 6 0 10 -9 10 -20 0 -11 5 -20 10 -20 6 0 10 -12 10
-26 0 -26 20 -54 40 -54 15 0 40 -25 40 -40 0 -17 26 -40 44 -40 11 0 16 -9
16 -30 0 -28 2 -30 40 -30 l40 0 0 -60 c0 -48 3 -60 16 -60 29 0 44 -27 44
-80 0 -41 5 -56 25 -75 13 -14 31 -25 40 -25 8 0 15 -7 15 -16 0 -8 18 -33 40
-54 22 -21 40 -46 40 -54 0 -9 8 -16 20 -16 12 0 20 -7 20 -16 0 -9 13 -29 30
-44 17 -15 30 -35 30 -44 0 -9 8 -16 20 -16 13 0 20 -7 20 -20 0 -11 5 -20 10
-20 6 0 10 -9 10 -20 0 -12 7 -20 16 -20 26 0 44 -26 44 -64 0 -20 5 -36 10
-36 6 0 10 5 10 10 0 6 18 10 40 10 33 0 40 -3 40 -20 0 -11 5 -20 10 -20 6 0
10 -13 10 -30 0 -16 5 -30 10 -30 6 0 10 -9 10 -20 0 -16 7 -20 30 -20 17 0
30 -4 30 -10 0 -5 7 -10 16 -10 23 0 44 -25 44 -54 0 -19 5 -26 20 -26 11 0
20 5 20 10 0 6 18 10 40 10 33 0 40 -3 40 -20 0 -17 7 -20 40 -20 33 0 40 -3
40 -20 0 -11 3 -20 6 -20 11 0 34 29 34 44 0 12 11 16 50 16 43 0 50 -3 50
-20 0 -11 5 -20 10 -20 6 0 10 5 10 10 0 6 16 10 35 10 l35 0 0 3885 0 3885
-10240 0 -10240 0 0 -3805z m9450 3755 l0 -40 -40 0 -40 0 0 40 0 40 40 0 40
0 0 -40z"/>
<path d="M20270 8300 c0 -5 -13 -10 -30 -10 -28 0 -30 -2 -30 -40 l0 -40 -40
0 c-38 0 -40 -2 -40 -30 0 -30 0 -30 -58 -30 -46 0 -60 -4 -72 -20 -8 -11 -22
-20 -32 -20 -10 0 -18 -4 -18 -10 0 -5 -7 -10 -16 -10 -20 0 -44 -24 -44 -44
0 -9 -4 -16 -10 -16 -5 0 -10 -9 -10 -20 0 -11 -4 -20 -10 -20 -5 0 -10 -4
-10 -10 0 -5 9 -10 20 -10 17 0 20 -7 20 -40 l0 -40 -40 0 c-22 0 -40 5 -40
10 0 6 -9 10 -20 10 -11 0 -20 -4 -20 -10 0 -5 -9 -10 -20 -10 -13 0 -20 -7
-20 -20 0 -11 -4 -20 -10 -20 -5 0 -10 -7 -10 -16 0 -26 -26 -44 -64 -44 l-36
0 0 -60 c0 -59 0 -60 -28 -60 -16 0 -34 -8 -42 -20 -8 -11 -20 -20 -28 -20
-17 0 -42 -24 -42 -40 0 -7 -13 -25 -30 -40 -17 -16 -30 -38 -30 -52 0 -13 -9
-30 -20 -38 -12 -8 -20 -26 -20 -42 0 -15 -4 -28 -10 -28 -5 0 -10 -7 -10 -16
0 -23 -25 -44 -54 -44 -25 0 -26 -1 -26 -70 l0 -70 -30 0 c-16 0 -30 -4 -30
-10 0 -5 -7 -10 -16 -10 -23 0 -44 -25 -44 -54 0 -14 -4 -26 -10 -26 -5 0 -10
-13 -10 -30 0 -27 -3 -30 -30 -30 -27 0 -30 -3 -30 -30 0 -16 -4 -30 -10 -30
-5 0 -10 -9 -10 -20 0 -11 -4 -20 -10 -20 -5 0 -10 -7 -10 -15 0 -20 -45 -65
-65 -65 -10 0 -15 -10 -15 -30 0 -16 -4 -30 -10 -30 -5 0 -10 -22 -10 -50 0
-49 -1 -50 -30 -50 -23 0 -30 -4 -30 -20 0 -11 -4 -20 -10 -20 -5 0 -10 -13
-10 -30 0 -23 -4 -30 -20 -30 -13 0 -20 -7 -20 -20 0 -13 -7 -20 -20 -20 -15
0 -20 -7 -20 -28 0 -16 -8 -34 -20 -42 -12 -8 -20 -26 -20 -42 0 -21 -5 -28
-20 -28 -13 0 -20 -7 -20 -20 0 -11 -4 -20 -10 -20 -5 0 -10 -9 -10 -20 0 -11
-4 -20 -10 -20 -5 0 -10 -13 -10 -30 0 -23 -4 -30 -20 -30 -11 0 -20 -4 -20
-10 0 -5 -7 -10 -16 -10 -20 0 -44 -24 -44 -44 0 -9 -4 -16 -10 -16 -5 0 -10
-9 -10 -20 0 -11 -4 -20 -10 -20 -5 0 -10 -9 -10 -20 0 -11 -4 -20 -10 -20 -5
0 -10 -9 -10 -20 0 -13 -7 -20 -20 -20 -15 0 -20 -7 -20 -28 0 -16 -8 -34 -20
-42 -12 -8 -20 -26 -20 -42 0 -19 -5 -28 -16 -28 -28 0 -44 -27 -44 -74 0 -44
-1 -46 -30 -46 -27 0 -30 -3 -30 -30 0 -23 -4 -30 -20 -30 -13 0 -20 -7 -20
-20 0 -13 -7 -20 -20 -20 -13 0 -20 -7 -20 -18 0 -10 -9 -24 -20 -32 -12 -8
-20 -26 -20 -42 0 -21 -5 -28 -20 -28 -16 0 -20 -7 -20 -30 0 -16 -4 -30 -10
-30 -5 0 -10 -9 -10 -20 0 -11 -4 -20 -10 -20 -5 0 -10 -13 -10 -30 0 -27 -3
-30 -30 -30 -16 0 -30 -4 -30 -10 0 -5 -9 -10 -20 -10 -16 0 -20 -7 -20 -30 0
-23 -4 -30 -20 -30 -17 0 -20 -7 -20 -50 0 -43 -3 -50 -20 -50 -11 0 -20 -4
-20 -10 0 -5 -9 -10 -20 -10 -13 0 -20 -7 -20 -18 0 -10 -9 -24 -20 -32 -12
-8 -20 -26 -20 -42 0 -19 -5 -28 -15 -28 -29 0 -65 -47 -65 -85 0 -32 -2 -35
-30 -35 -26 0 -30 -4 -30 -26 0 -16 -12 -37 -30 -54 -16 -15 -30 -35 -30 -44
0 -9 -8 -16 -20 -16 -15 0 -20 -7 -20 -25 0 -29 -59 -95 -85 -95 -8 0 -15 -8
-15 -18 0 -10 -9 -24 -20 -32 -14 -10 -20 -26 -20 -52 0 -21 -4 -38 -10 -38
-5 0 -10 -9 -10 -20 0 -12 -7 -20 -16 -20 -23 0 -44 -25 -44 -54 0 -17 -6 -26
-16 -26 -23 0 -44 -25 -44 -54 0 -21 -5 -26 -25 -26 -31 0 -75 -41 -75 -70 0
-29 -23 -50 -54 -50 -21 0 -26 -5 -26 -26 0 -33 -21 -54 -54 -54 -22 0 -26 -4
-26 -30 0 -23 -4 -30 -20 -30 -15 0 -20 -7 -20 -28 0 -16 -8 -34 -20 -42 -11
-8 -20 -22 -20 -32 0 -11 -7 -18 -18 -18 -10 0 -24 -9 -32 -20 -8 -11 -20 -20
-28 -20 -17 0 -42 -25 -42 -42 0 -8 -9 -20 -20 -28 -12 -8 -20 -26 -20 -42 0
-20 -5 -28 -18 -28 -10 0 -24 -9 -32 -20 -8 -11 -21 -20 -28 -20 -8 0 -27 -13
-42 -30 -15 -16 -35 -30 -44 -30 -11 0 -16 -9 -16 -26 0 -29 -21 -54 -44 -54
-9 0 -16 -8 -16 -20 0 -16 -7 -20 -30 -20 -23 0 -30 -4 -30 -20 0 -13 -7 -20
-20 -20 -13 0 -20 -7 -20 -20 0 -13 -7 -20 -20 -20 -13 0 -20 -7 -20 -20 0
-15 -7 -20 -25 -20 -33 0 -75 -42 -75 -75 0 -21 -5 -25 -30 -25 -21 0 -30 -5
-30 -16 0 -20 -24 -44 -44 -44 -9 0 -16 -4 -16 -10 0 -5 -7 -10 -16 -10 -20 0
-44 -24 -44 -44 0 -9 -8 -16 -20 -16 -11 0 -20 -4 -20 -10 0 -5 -7 -10 -15
-10 -26 0 -85 -66 -85 -95 0 -21 -5 -25 -30 -25 -23 0 -30 -4 -30 -20 0 -13
-7 -20 -20 -20 -13 0 -20 -7 -20 -20 0 -13 -7 -20 -18 -20 -10 0 -24 -9 -32
-20 -8 -11 -22 -20 -32 -20 -11 0 -18 -7 -18 -20 0 -13 -7 -20 -20 -20 -13 0
-20 -7 -20 -20 0 -15 -7 -20 -26 -20 -16 0 -37 -12 -54 -30 -17 -18 -38 -30
-54 -30 -14 0 -26 -4 -26 -10 0 -5 -7 -10 -16 -10 -23 0 -44 -25 -44 -54 0
-24 -4 -26 -40 -26 -22 0 -40 -4 -40 -10 0 -5 -7 -10 -15 -10 -20 0 -65 -45
-65 -65 0 -11 -10 -15 -36 -15 -38 0 -64 -18 -64 -44 0 -11 -9 -16 -30 -16
-27 0 -30 -3 -30 -30 l0 -30 -60 0 c-53 0 -60 -2 -60 -20 0 -13 -7 -20 -20
-20 -13 0 -20 -7 -20 -20 0 -16 -7 -20 -30 -20 -16 0 -30 -4 -30 -10 0 -5 -12
-10 -26 -10 -29 0 -54 -21 -54 -44 0 -12 -10 -16 -38 -16 -26 0 -42 -6 -52
-20 -8 -11 -21 -20 -28 -20 -8 0 -27 -13 -42 -30 -17 -18 -38 -30 -54 -30 -17
0 -26 -5 -26 -16 0 -26 -26 -44 -64 -44 -29 0 -36 -4 -36 -20 0 -16 -7 -20
-30 -20 -23 0 -30 -4 -30 -20 0 -16 -7 -20 -30 -20 -27 0 -30 -3 -30 -30 l0
-30 -60 0 c-53 0 -60 -2 -60 -20 0 -13 -7 -20 -20 -20 -13 0 -20 -7 -20 -20 0
-13 -7 -20 -20 -20 -11 0 -20 -4 -20 -10 0 -5 -13 -10 -30 -10 -16 0 -30 -4
-30 -10 0 -5 -9 -10 -20 -10 -13 0 -20 -7 -20 -20 0 -18 -7 -20 -68 -20 -56 0
-70 -3 -82 -20 -8 -11 -22 -20 -32 -20 -13 0 -18 -8 -18 -30 0 -28 -2 -30 -40
-30 -22 0 -40 -4 -40 -10 0 -5 -13 -10 -30 -10 -21 0 -30 -5 -30 -16 0 -23
-25 -44 -54 -44 -14 0 -26 -4 -26 -10 0 -5 -13 -10 -30 -10 -16 0 -30 -4 -30
-10 0 -5 -25 -10 -56 -10 -62 0 -84 -14 -84 -54 0 -19 -5 -26 -20 -26 -11 0
-20 -4 -20 -10 0 -6 -27 -10 -60 -10 -53 0 -60 -2 -60 -20 0 -16 -7 -20 -38
-20 -26 0 -42 -6 -52 -20 -8 -12 -26 -20 -42 -20 -15 0 -28 -4 -28 -10 0 -5
-9 -10 -20 -10 -13 0 -20 -7 -20 -20 0 -17 -7 -20 -50 -20 -27 0 -50 -4 -50
-10 0 -5 -13 -10 -28 -10 -16 0 -34 -8 -42 -20 -10 -14 -26 -20 -50 -20 -24 0
-40 -6 -50 -20 -8 -11 -22 -20 -32 -20 -10 0 -18 -4 -18 -10 0 -5 -13 -10 -30
-10 -21 0 -30 -5 -30 -16 0 -28 -27 -44 -74 -44 -39 0 -46 -3 -46 -20 0 -17
-7 -20 -39 -20 -22 0 -41 5 -44 13 -3 8 -11 5 -24 -10 -11 -13 -28 -23 -37
-23 -9 0 -16 -8 -16 -20 0 -17 -7 -20 -40 -20 -22 0 -40 -4 -40 -10 0 -5 -18
-10 -40 -10 -22 0 -40 -4 -40 -10 0 -5 -7 -10 -16 -10 -20 0 -44 -24 -44 -44
0 -13 -13 -16 -70 -16 -63 0 -70 -2 -70 -20 0 -15 -7 -20 -28 -20 -16 0 -34
-8 -42 -20 -16 -23 -86 -28 -92 -8 -6 17 -38 -14 -38 -36 0 -12 -10 -16 -40
-16 -22 0 -40 -4 -40 -10 0 -6 -43 -10 -110 -10 -67 0 -110 -4 -110 -10 0 -5
-13 -10 -30 -10 -27 0 -30 -3 -30 -30 l0 -30 -80 0 c-47 0 -80 4 -80 10 0 6
-9 10 -20 10 -13 0 -20 -7 -20 -20 0 -17 -7 -20 -40 -20 -33 0 -40 -3 -40 -20
0 -17 -7 -20 -50 -20 -49 0 -50 -1 -50 -30 0 -28 -2 -30 -40 -30 -22 0 -40 5
-40 10 0 6 -13 10 -30 10 -21 0 -30 -5 -30 -16 0 -26 -26 -44 -64 -44 -35 0
-36 1 -36 40 0 43 -4 47 -26 26 -9 -9 -14 -35 -14 -70 l0 -56 -40 0 c-33 0
-40 3 -40 20 0 17 -7 20 -39 20 -22 0 -41 5 -43 12 -6 17 -38 -14 -38 -36 0
-12 -10 -16 -40 -16 -33 0 -40 -3 -40 -20 0 -17 -7 -20 -40 -20 -33 0 -40 3
-40 20 0 13 -7 20 -20 20 -13 0 -20 7 -20 20 0 17 -7 20 -40 20 -22 0 -40 5
-40 10 0 6 -13 10 -30 10 -23 0 -30 -4 -30 -20 0 -18 -7 -20 -80 -20 -73 0
-80 -2 -80 -20 0 -17 -7 -20 -40 -20 -22 0 -40 5 -40 10 0 6 -13 10 -30 10
-23 0 -30 4 -30 20 0 16 -7 20 -30 20 -16 0 -30 5 -30 10 0 6 -18 10 -40 10
-38 0 -40 -2 -40 -30 0 -28 -2 -30 -40 -30 -38 0 -40 2 -40 30 0 23 -4 30 -20
30 -11 0 -20 -4 -20 -10 0 -5 -18 -10 -40 -10 -36 0 -40 2 -40 26 0 47 -18 54
-144 54 -109 0 -116 1 -116 20 0 13 -7 20 -20 20 -11 0 -20 -4 -20 -10 0 -5
-18 -10 -40 -10 -22 0 -40 5 -40 10 0 6 -22 10 -50 10 -27 0 -50 5 -50 10 0 6
-18 10 -40 10 -22 0 -40 5 -40 10 0 6 -18 10 -40 10 -22 0 -40 -4 -40 -10 0
-5 -18 -10 -40 -10 -22 0 -40 5 -40 10 0 6 -27 10 -60 10 -33 0 -60 4 -60 10
0 6 -9 10 -20 10 -16 0 -20 7 -20 30 0 29 -1 30 -50 30 -27 0 -50 5 -50 10 0
6 -13 10 -30 10 -16 0 -30 5 -30 10 0 6 -37 10 -90 10 -53 0 -90 4 -90 10 0 6
-18 10 -40 10 -33 0 -40 3 -40 20 0 18 -7 20 -80 20 -79 0 -80 0 -80 26 0 29
-21 54 -44 54 -9 0 -16 5 -16 10 0 6 -33 10 -80 10 -73 0 -80 2 -80 20 0 17
-7 20 -40 20 -22 0 -40 5 -40 10 0 6 -9 10 -20 10 -11 0 -20 5 -20 10 0 6 -9
10 -20 10 -11 0 -20 5 -20 10 0 6 -13 10 -30 10 -23 0 -30 4 -30 20 0 17 -7
20 -40 20 -22 0 -40 5 -40 10 0 6 -18 10 -40 10 -22 0 -40 5 -40 10 0 6 -13
10 -30 10 -23 0 -30 4 -30 20 0 13 -7 20 -20 20 -13 0 -20 7 -20 20 0 13 -7
20 -18 20 -10 0 -24 9 -32 20 -11 15 -26 20 -62 20 -41 0 -48 3 -48 20 0 18
-7 20 -70 20 -63 0 -70 2 -70 20 0 11 -4 20 -10 20 -5 0 -10 9 -10 20 0 13 -7
20 -20 20 -11 0 -20 5 -20 10 0 6 -9 10 -20 10 -11 0 -20 5 -20 10 0 6 -13 10
-30 10 -16 0 -30 5 -30 10 0 6 -17 10 -38 10 -26 0 -42 6 -52 20 -8 11 -21 20
-30 20 -9 0 -22 9 -30 20 -11 15 -26 20 -62 20 -41 0 -48 3 -48 20 0 13 -7 20
-20 20 -11 0 -20 5 -20 10 0 6 -9 10 -20 10 -11 0 -20 5 -20 10 0 6 -9 10 -20
10 -11 0 -20 5 -20 10 0 6 -13 10 -30 10 -16 0 -30 5 -30 10 0 6 -8 10 -18 10
-10 0 -24 9 -32 20 -10 14 -26 20 -52 20 -28 0 -38 4 -38 16 0 23 -25 44 -54
44 -14 0 -26 5 -26 10 0 6 -18 10 -40 10 -38 0 -40 2 -40 30 0 28 -2 30 -40
30 -33 0 -40 3 -40 20 0 13 -7 20 -20 20 -13 0 -20 7 -20 20 0 16 -7 20 -30
20 -16 0 -30 5 -30 10 0 6 -13 10 -30 10 -16 0 -30 5 -30 10 0 6 -18 10 -40
10 -38 0 -40 2 -40 30 0 27 -3 30 -30 30 -21 0 -30 5 -30 16 0 25 -26 44 -62
44 -22 0 -39 7 -48 20 -8 11 -22 20 -32 20 -10 0 -18 5 -18 10 0 6 -18 10 -40
10 -33 0 -40 3 -40 20 0 13 -7 20 -20 20 -12 0 -20 7 -20 16 0 23 -25 44 -52
44 -13 0 -30 9 -38 20 -8 11 -22 20 -32 20 -10 0 -18 5 -18 10 0 6 -7 10 -15
10 -20 0 -65 45 -65 65 0 10 -9 15 -26 15 -16 0 -37 12 -54 30 -17 18 -38 30
-54 30 -14 0 -26 5 -26 10 0 6 -13 10 -30 10 -16 0 -30 5 -30 10 0 6 -9 10
-20 10 -15 0 -20 7 -20 26 0 29 -21 54 -44 54 -9 0 -16 8 -16 20 0 13 -7 20
-20 20 -13 0 -20 7 -20 20 0 17 -7 20 -50 20 -43 0 -50 3 -50 20 0 17 -7 20
-40 20 -33 0 -40 3 -40 20 0 13 -7 20 -20 20 -16 0 -20 7 -20 30 0 28 -2 30
-40 30 -33 0 -40 3 -40 20 0 11 -4 20 -10 20 -5 0 -10 9 -10 20 0 16 -7 20
-38 20 -26 0 -42 6 -52 20 -8 11 -22 20 -32 20 -10 0 -18 5 -18 10 0 6 -9 10
-20 10 -16 0 -20 7 -20 30 0 23 -4 30 -20 30 -11 0 -20 5 -20 10 0 6 -18 10
-40 10 -33 0 -40 3 -40 20 0 11 -4 20 -10 20 -5 0 -10 7 -10 15 0 29 -47 65
-85 65 -28 0 -35 4 -35 20 0 11 -4 20 -10 20 -5 0 -10 9 -10 20 0 18 -7 20
-60 20 -53 0 -60 2 -60 20 0 13 -7 20 -20 20 -16 0 -20 7 -20 30 0 22 -5 30
-18 30 -10 0 -24 9 -32 20 -8 11 -20 20 -28 20 -18 0 -82 66 -82 85 0 12 -13
15 -60 15 -58 0 -60 1 -60 26 0 29 -21 54 -44 54 -9 0 -16 7 -16 16 0 23 -25
44 -54 44 -19 0 -26 5 -26 20 0 11 -4 20 -10 20 -5 0 -10 7 -10 16 0 20 -24
44 -44 44 -9 0 -16 7 -16 16 0 18 -23 44 -40 44 -14 0 -60 46 -60 60 0 19 -27
40 -50 40 -25 0 -50 22 -50 44 0 11 -9 16 -30 16 -23 0 -30 4 -30 20 0 11 -4
20 -10 20 -5 0 -10 7 -10 16 0 19 -24 44 -42 44 -8 0 -20 9 -28 20 -8 12 -26
20 -42 20 -24 0 -28 4 -28 30 0 17 -4 30 -10 30 -5 0 -10 9 -10 20 0 15 -7 20
-26 20 -29 0 -54 21 -54 44 0 9 -4 16 -10 16 -5 0 -10 9 -10 20 0 11 -4 20
-10 20 -5 0 -10 7 -10 15 0 26 -86 105 -115 105 -18 0 -25 5 -25 20 0 11 -4
20 -10 20 -5 0 -10 9 -10 20 0 11 -4 20 -10 20 -5 0 -10 9 -10 20 0 16 -7 20
-30 20 -25 0 -30 4 -30 25 0 33 -42 75 -75 75 -18 0 -25 5 -25 20 0 13 -7 20
-20 20 -13 0 -20 7 -20 20 0 11 -4 20 -10 20 -5 0 -10 11 -10 25 0 31 -41 75
-70 75 -25 0 -50 22 -50 44 0 9 -8 16 -20 16 -17 0 -20 7 -20 40 0 33 -3 40
-20 40 -16 0 -20 7 -20 30 0 23 -4 30 -20 30 -13 0 -20 7 -20 20 0 13 -7 20
-20 20 -16 0 -20 7 -20 30 0 21 -5 30 -16 30 -19 0 -44 24 -44 42 0 8 -9 20
-20 28 -11 8 -20 20 -20 28 0 18 -25 42 -44 42 -9 0 -16 8 -16 20 0 11 -4 20
-10 20 -5 0 -10 9 -10 20 0 15 -7 20 -28 20 -16 0 -34 8 -42 20 -8 11 -22 20
-32 20 -11 0 -18 7 -18 20 0 11 -4 20 -10 20 -5 0 -10 14 -10 30 0 27 -3 30
-30 30 l-30 0 0 60 c0 33 -4 60 -10 60 -5 0 -10 9 -10 20 0 13 -7 20 -20 20
-13 0 -20 7 -20 20 0 13 -7 20 -20 20 -17 0 -20 7 -20 40 0 22 -4 40 -10 40
-5 0 -10 9 -10 20 0 13 -7 20 -20 20 -17 0 -20 7 -20 40 0 22 -4 40 -10 40 -5
0 -10 9 -10 20 0 12 -7 20 -16 20 -20 0 -44 24 -44 44 0 9 -4 16 -10 16 -5 0
-10 7 -10 16 0 9 -13 29 -30 44 -16 15 -30 34 -30 42 0 7 -9 20 -20 28 -11 8
-20 22 -20 32 0 13 -8 18 -30 18 -28 0 -30 2 -30 40 0 22 -4 40 -10 40 -5 0
-10 12 -10 26 0 29 -21 54 -44 54 -9 0 -16 8 -16 20 0 11 -4 20 -10 20 -5 0
-10 9 -10 20 0 16 -7 20 -30 20 -28 0 -30 2 -30 40 0 33 -3 40 -20 40 -13 0
-20 7 -20 18 0 10 -9 24 -20 32 -11 8 -20 22 -20 32 0 10 -4 18 -10 18 -5 0
-10 9 -10 20 0 11 -4 20 -10 20 -5 0 -10 18 -10 40 0 30 -4 40 -16 40 -19 0
-44 24 -44 42 0 8 -9 20 -20 28 -11 8 -20 22 -20 32 0 10 -7 18 -15 18 -25 0
-65 46 -65 75 0 14 -4 25 -10 25 -5 0 -10 9 -10 20 0 16 -7 20 -30 20 -23 0
-30 4 -30 20 0 11 -4 20 -10 20 -5 0 -10 12 -10 26 0 26 -20 54 -40 54 -23 0
-60 49 -60 80 0 38 -20 60 -54 60 -23 0 -26 4 -26 36 0 38 -18 64 -44 64 -11
0 -16 9 -16 30 0 27 -3 30 -30 30 -27 0 -30 3 -30 30 0 27 -3 30 -30 30 -23 0
-30 4 -30 20 0 11 -4 20 -10 20 -5 0 -10 18 -10 40 0 33 -3 40 -20 40 -11 0
-20 5 -20 10 0 6 -13 10 -30 10 -23 0 -30 4 -30 20 0 17 -7 20 -50 20 -48 0
-50 1 -50 28 0 16 -8 34 -20 42 -11 8 -20 22 -20 32 0 11 -7 18 -20 18 -11 0
-20 7 -20 15 0 19 -44 65 -62 65 -8 0 -20 9 -28 20 -8 11 -22 20 -32 20 -13 0
-18 8 -18 30 0 28 -2 30 -39 30 -22 0 -42 6 -45 13 -5 10 -7 10 -12 0 -3 -7
-14 -13 -25 -13 -10 0 -19 -4 -19 -10 0 -5 -18 -10 -40 -10 -38 0 -40 2 -40
30 0 17 -4 30 -10 30 -5 0 -10 -9 -10 -20 0 -17 -7 -20 -40 -20 l-39 0 -4 63
c-2 34 -4 -1764 -5 -3995 l-2 -4058 10240 0 10240 0 0 4155 0 4155 -25 0 c-14
0 -25 -4 -25 -10 0 -5 -18 -10 -40 -10 -22 0 -40 5 -40 10 0 6 -18 10 -40 10
-22 0 -40 -4 -40 -10z"/>
<path d="M20110 8250 c0 -11 5 -20 10 -20 6 0 10 9 10 20 0 11 -4 20 -10 20
-5 0 -10 -9 -10 -20z"/>
<path d="M10630 690 c0 -13 7 -20 20 -20 13 0 20 7 20 20 0 13 -7 20 -20 20
-13 0 -20 -7 -20 -20z"/>
</g>
</svg>
